<?xml version="1.0" encoding="utf-8"?>
<!-- Generator: Adobe Illustrator 19.0.0, SVG Export Plug-In . SVG Version: 6.00 Build 0)  -->
<svg version="1.1" id="Capa_1" xmlns="http://www.w3.org/2000/svg" xmlns:xlink="http://www.w3.org/1999/xlink" x="0px" y="0px"
	 viewBox="-49 141 512 512" style="enable-background:new -49 141 512 512;" xml:space="preserve">
<style type="text/css">
	.st0{fill:#FF5B00;}
	.st1{fill:#FF6700;}
	.st2{fill:#FECB66;}
	.st3{fill:#FEDAC6;}
	.st4{fill:#F5C4B0;}
	.st5{fill:#F5AD76;}
	.st6{fill:#EBEBEB;}
</style>
<path class="st0" d="M305,203l-2.5-1.2c-10.4-31.1-39.5-52.1-72.3-52.1H85.5l17.4,52.1c-20.2,10.1-30.5,33-24.6,54.8l15.9,49.4h17.4
	v-43.4c0,0,52.1,0,78.1-8.7l78.1-26l34.7,60.7v17.4h17.4l10.2-51.3C334.3,233.7,324,212.6,305,203z"/>
<path class="st1" d="M102.9,201.7c-20.1,10.1-30.3,33-24.4,54.8l15.7,49.4h17.4v-43.4c0,0,20.4,0,42-2.1
	C131.3,246.2,113.7,225.8,102.9,201.7z"/>
<path class="st2" d="M344,508.2l-60.3-8.1l-4.2,9.6c-17.2,40.1-63.7,58.6-103.7,41.4c-18.6-8-33.4-22.8-41.4-41.4l-4.2-9.6L70,508.2
	c-25.9,3.4-45.2,25.5-45.2,51.5V653h364.5v-93.3C389.2,533.6,369.9,511.6,344,508.2z"/>
<path class="st3" d="M207,557.5c31.6,0,60.1-18.8,72.5-47.8l4.2-9.6l-9.5-1.3c-8.7-1.1-15.2-8.6-15.1-17.4v-36.7H154.9V482
	c0.1,8.8-6.4,16.2-15.1,17.4l-9.5,1.3l4.2,9.6C147,539.1,175.6,557.6,207,557.5z"/>
<path class="st4" d="M260.1,487.3c-0.7-1.8-1-3.8-1-5.7v-36.9H154.9V482c0,2-0.3,3.9-1,5.7C187.3,504.5,226.8,504.4,260.1,487.3z"/>
<path class="st5" d="M59.5,510.8c-20.7,7.3-34.7,26.9-34.7,48.9V653h34.7C59.5,653,59.5,510.8,59.5,510.8z"/>
<path class="st3" d="M302.5,297.2h-8.7v52.1h8.7c14.4,0,26-11.7,26-26S316.8,297.2,302.5,297.2z"/>
<path class="st4" d="M85.5,323.2c0,14.4,11.7,26,26,26h8.7v-52.1h-8.7C97.2,297.2,85.5,308.9,85.5,323.2z"/>
<path class="st3" d="M302.5,382.2c0.1,12.8-4.5,25.1-12.8,34.7l-37.5,42.4c-6.6,7.5-16.1,11.8-26,11.8h-38c-10,0-19.5-4.3-26-11.8
	l-37.5-42.9c-8.4-9.6-13-22-12.8-34.7V262.5c0,0,52.1,0,78.1-8.7l78.1-26l34.7,60.7L302.5,382.2z"/>
<path class="st4" d="M146.3,261c-18.7,1.5-34.7,1.5-34.7,1.5v119.7c-0.1,12.8,4.5,25.1,12.8,34.7l21.9,24.5L146.3,261L146.3,261z"/>
<g>
	<path class="st6" d="M111.5,288.5h78.1l0,0v26c0,14.4-11.7,26-26,26h-26c-14.4,0-26-11.7-26-26L111.5,288.5L111.5,288.5z"/>
	<path class="st6" d="M224.4,288.5h78.1l0,0v26c0,14.4-11.7,26-26,26h-26c-14.4,0-26-11.7-26-26L224.4,288.5L224.4,288.5z"/>
</g>
<path d="M33.4,653H16.1v-92.9c0-30.6,22.9-56.6,53.2-60.3l69.3-9.4c4.4-0.6,7.6-4.3,7.6-8.7v-28.3h17.4v28.2
	c0.1,13.1-9.6,24.3-22.7,26l-69.4,9.4c-21.8,2.7-38.1,21.2-38.1,43.1L33.4,653L33.4,653z"/>
<path d="M397.9,653h-17.4v-92.9c0-21.9-16.3-40.4-38-43.1l-69.5-9.4c-13-1.7-22.7-12.9-22.6-26v-28.1h17.4v28.2
	c0,4.5,3.2,8.2,7.5,8.8l69.5,9.4c30.3,3.8,53.2,29.7,53.2,60.3L397.9,653L397.9,653z"/>
<path d="M302.5,357.9h-8.7v-17.4h8.7c9.6,0,17.4-7.8,17.4-17.4s-7.8-17.4-17.4-17.4h-8.7v-17.4h8.7c19.1,0,34.7,15.6,34.7,34.7
	S321.6,357.9,302.5,357.9z"/>
<path d="M120.2,357.9h-8.7c-19.1,0-34.7-15.6-34.7-34.7s15.6-34.7,34.7-34.7h8.7v17.4h-8.7c-9.6,0-17.4,7.8-17.4,17.4
	s7.8,17.4,17.4,17.4h8.7V357.9z"/>
<path d="M207,566.2C207,566.2,207,566.2,207,566.2c-35.2,0-66.8-20.8-80.6-53.1l-5.6-12.9l15.9-6.8l5.6,12.9
	c11.1,25.9,36.4,42.6,64.5,42.6c0,0,0.1,0,0.1,0c28.1,0,53.5-16.7,64.5-42.6l5.6-12.9l16,6.8l-5.6,12.9
	C273.7,545.4,242.1,566.2,207,566.2z"/>
<path d="M215.7,366.6H181c-2.7,0-5.2-1.2-6.8-3.3c-1.6-2.1-2.2-4.9-1.6-7.4l17.4-69.1l16.8,4.2l-14.6,58.3h23.6V366.6z"/>
<path d="M196.3,401.3H181V384h15.3c11.4,0,22.8-2.7,32.9-7.8l7.7,15.6C224.3,398,210.3,401.3,196.3,401.3z"/>
<path d="M226.1,479.8h-38c-12.5,0-24.3-5.4-32.6-14.8L118,422.2c-9.8-11.2-15.1-25.6-15-40.5V262.5c0-4.8,3.9-8.7,8.7-8.7
	c0.5,0,51-0.1,75.4-8.2l78.1-26c3.9-1.3,8.2,0.3,10.3,3.9l34.7,60.7c0.8,1.3,1.1,2.8,1.1,4.3l-0.2,93.6c0.1,14.9-5.2,29.2-15,40.4
	l-37.5,42.5C250.4,474.4,238.6,479.8,226.1,479.8z M120.4,271v110.7c-0.1,10.7,3.7,21,10.7,29l37.5,42.9c4.9,5.6,12,8.8,19.5,8.8h38
	c7.5,0,14.6-3.2,19.5-8.9l37.5-42.5c7-8,10.8-18.3,10.7-28.9c0,0,0-0.1,0-0.1l0.2-91.3l-30-52.6L192.6,262
	C171.8,269,136.7,270.6,120.4,271z"/>
<path d="M85.9,308.5l-15.8-49.4c-6.5-23.5,2.9-48,22.3-61.3l-15.1-45.4c-0.9-2.6-0.4-5.6,1.2-7.8c1.6-2.3,4.3-3.6,7-3.6h144.7
	c35.3,0,66.7,21.8,79.2,54.6c22,11.3,34,36.2,29.1,60.7l-10.2,51.3l-17-3.4l10.2-51.3c3.5-17.1-5-34.4-20.6-42.2l-2.5-1.3
	c-2-1-3.5-2.8-4.2-5c-9.2-27.6-34.9-46.1-64-46.1H97.5l13.6,40.6c1.4,4.1-0.5,8.6-4.4,10.5c-16.4,8.2-24.8,27-20,44.7l15.7,49
	L85.9,308.5z"/>
<path d="M163.6,349.3h-26c-19.1,0-34.7-15.6-34.7-34.7v-26c0-4.8,3.9-8.7,8.7-8.7h78.1c4.8,0,8.7,3.9,8.7,8.7v26
	C198.3,333.7,182.8,349.3,163.6,349.3z M120.2,297.2v17.4c0,9.6,7.8,17.4,17.4,17.4h26c9.6,0,17.4-7.8,17.4-17.4v-17.4H120.2z"/>
<path d="M276.4,349.3h-26c-19.1,0-34.7-15.6-34.7-34.7v-26c0-4.8,3.9-8.7,8.7-8.7h78.1c4.8,0,8.7,3.9,8.7,8.7v26
	C311.1,333.7,295.6,349.3,276.4,349.3z M233,297.2v17.4c0,9.6,7.8,17.4,17.4,17.4h26c9.6,0,17.4-7.8,17.4-17.4v-17.4H233z"/>
<rect x="189.6" y="279.8" width="34.7" height="17.4"/>
</svg>
